<mxfile host="app.diagrams.net" modified="2024-02-05T18:55:40.447Z" agent="Mozilla/5.0 (Macintosh; Intel Mac OS X 10_15_7) AppleWebKit/537.36 (KHTML, like Gecko) Chrome/121.0.0.0 Safari/537.36" etag="E94DXhQ9TK30SK4or1qw" version="23.0.2" type="device">
  <diagram name="Page-1" id="2FI6XyES803FCEHlAzth">
    <mxGraphModel dx="4968" dy="2948" grid="1" gridSize="10" guides="1" tooltips="1" connect="1" arrows="1" fold="1" page="1" pageScale="1" pageWidth="850" pageHeight="1100" math="0" shadow="0">
      <root>
        <mxCell id="0" />
        <mxCell id="1" parent="0" />
        <mxCell id="ioFfpy6WPlezLUlDHou8-60" value="" style="endArrow=none;dashed=1;html=1;dashPattern=1 3;strokeWidth=2;rounded=0;exitX=0.4;exitY=1;exitDx=0;exitDy=0;exitPerimeter=0;" edge="1" parent="1" source="ioFfpy6WPlezLUlDHou8-35">
          <mxGeometry width="50" height="50" relative="1" as="geometry">
            <mxPoint x="420" y="610" as="sourcePoint" />
            <mxPoint x="200" y="349" as="targetPoint" />
            <Array as="points">
              <mxPoint x="470" y="350" />
            </Array>
          </mxGeometry>
        </mxCell>
        <mxCell id="ioFfpy6WPlezLUlDHou8-1" value="" style="endArrow=classic;html=1;rounded=0;strokeWidth=2;" edge="1" parent="1">
          <mxGeometry width="50" height="50" relative="1" as="geometry">
            <mxPoint x="200" y="540" as="sourcePoint" />
            <mxPoint x="200" y="160" as="targetPoint" />
          </mxGeometry>
        </mxCell>
        <mxCell id="ioFfpy6WPlezLUlDHou8-2" value="" style="endArrow=classic;html=1;rounded=0;strokeWidth=2;" edge="1" parent="1">
          <mxGeometry width="50" height="50" relative="1" as="geometry">
            <mxPoint x="120" y="440" as="sourcePoint" />
            <mxPoint x="750" y="440" as="targetPoint" />
          </mxGeometry>
        </mxCell>
        <mxCell id="ioFfpy6WPlezLUlDHou8-3" value="" style="endArrow=none;dashed=1;html=1;dashPattern=1 3;strokeWidth=2;rounded=0;" edge="1" parent="1" source="ioFfpy6WPlezLUlDHou8-23">
          <mxGeometry width="50" height="50" relative="1" as="geometry">
            <mxPoint x="240" y="440" as="sourcePoint" />
            <mxPoint x="240" y="340" as="targetPoint" />
          </mxGeometry>
        </mxCell>
        <mxCell id="ioFfpy6WPlezLUlDHou8-4" value="" style="endArrow=none;dashed=1;html=1;dashPattern=1 3;strokeWidth=2;rounded=0;" edge="1" parent="1">
          <mxGeometry width="50" height="50" relative="1" as="geometry">
            <mxPoint x="320" y="440" as="sourcePoint" />
            <mxPoint x="320" y="350" as="targetPoint" />
          </mxGeometry>
        </mxCell>
        <mxCell id="ioFfpy6WPlezLUlDHou8-5" value="" style="endArrow=none;dashed=1;html=1;dashPattern=1 3;strokeWidth=2;rounded=0;" edge="1" parent="1">
          <mxGeometry width="50" height="50" relative="1" as="geometry">
            <mxPoint x="360" y="440" as="sourcePoint" />
            <mxPoint x="360" y="340" as="targetPoint" />
          </mxGeometry>
        </mxCell>
        <mxCell id="ioFfpy6WPlezLUlDHou8-6" value="" style="endArrow=none;dashed=1;html=1;dashPattern=1 3;strokeWidth=2;rounded=0;" edge="1" parent="1" source="ioFfpy6WPlezLUlDHou8-31">
          <mxGeometry width="50" height="50" relative="1" as="geometry">
            <mxPoint x="440" y="290" as="sourcePoint" />
            <mxPoint x="200" y="290" as="targetPoint" />
          </mxGeometry>
        </mxCell>
        <mxCell id="ioFfpy6WPlezLUlDHou8-7" value="" style="endArrow=none;dashed=1;html=1;dashPattern=1 3;strokeWidth=2;rounded=0;" edge="1" parent="1">
          <mxGeometry width="50" height="50" relative="1" as="geometry">
            <mxPoint x="440" y="440" as="sourcePoint" />
            <mxPoint x="440" y="290" as="targetPoint" />
          </mxGeometry>
        </mxCell>
        <mxCell id="ioFfpy6WPlezLUlDHou8-8" value="" style="endArrow=none;dashed=1;html=1;dashPattern=1 3;strokeWidth=2;rounded=0;" edge="1" parent="1">
          <mxGeometry width="50" height="50" relative="1" as="geometry">
            <mxPoint x="400" y="250" as="sourcePoint" />
            <mxPoint x="200" y="250" as="targetPoint" />
          </mxGeometry>
        </mxCell>
        <mxCell id="ioFfpy6WPlezLUlDHou8-9" value="" style="endArrow=none;dashed=1;html=1;dashPattern=1 3;strokeWidth=2;rounded=0;" edge="1" parent="1">
          <mxGeometry width="50" height="50" relative="1" as="geometry">
            <mxPoint x="354" y="340" as="sourcePoint" />
            <mxPoint x="200" y="340" as="targetPoint" />
          </mxGeometry>
        </mxCell>
        <mxCell id="ioFfpy6WPlezLUlDHou8-10" value="" style="endArrow=none;dashed=1;html=1;dashPattern=1 3;strokeWidth=2;rounded=0;" edge="1" parent="1">
          <mxGeometry width="50" height="50" relative="1" as="geometry">
            <mxPoint x="480" y="440" as="sourcePoint" />
            <mxPoint x="480" y="390" as="targetPoint" />
          </mxGeometry>
        </mxCell>
        <mxCell id="ioFfpy6WPlezLUlDHou8-11" value="" style="endArrow=none;dashed=1;html=1;dashPattern=1 3;strokeWidth=2;rounded=0;" edge="1" parent="1">
          <mxGeometry width="50" height="50" relative="1" as="geometry">
            <mxPoint x="480" y="390" as="sourcePoint" />
            <mxPoint x="200" y="390" as="targetPoint" />
          </mxGeometry>
        </mxCell>
        <mxCell id="ioFfpy6WPlezLUlDHou8-12" value="" style="endArrow=none;dashed=1;html=1;dashPattern=1 3;strokeWidth=2;rounded=0;" edge="1" parent="1">
          <mxGeometry width="50" height="50" relative="1" as="geometry">
            <mxPoint x="520" y="440" as="sourcePoint" />
            <mxPoint x="520" y="300" as="targetPoint" />
          </mxGeometry>
        </mxCell>
        <mxCell id="ioFfpy6WPlezLUlDHou8-13" value="" style="endArrow=none;dashed=1;html=1;dashPattern=1 3;strokeWidth=2;rounded=0;" edge="1" parent="1">
          <mxGeometry width="50" height="50" relative="1" as="geometry">
            <mxPoint x="520" y="300" as="sourcePoint" />
            <mxPoint x="200" y="300" as="targetPoint" />
          </mxGeometry>
        </mxCell>
        <mxCell id="ioFfpy6WPlezLUlDHou8-14" value="" style="endArrow=none;dashed=1;html=1;dashPattern=1 3;strokeWidth=2;rounded=0;" edge="1" parent="1">
          <mxGeometry width="50" height="50" relative="1" as="geometry">
            <mxPoint x="560" y="440" as="sourcePoint" />
            <mxPoint x="560" y="260" as="targetPoint" />
          </mxGeometry>
        </mxCell>
        <mxCell id="ioFfpy6WPlezLUlDHou8-15" value="" style="endArrow=none;dashed=1;html=1;dashPattern=1 3;strokeWidth=2;rounded=0;" edge="1" parent="1">
          <mxGeometry width="50" height="50" relative="1" as="geometry">
            <mxPoint x="560" y="260" as="sourcePoint" />
            <mxPoint x="200" y="260" as="targetPoint" />
          </mxGeometry>
        </mxCell>
        <mxCell id="ioFfpy6WPlezLUlDHou8-16" value="" style="endArrow=none;dashed=1;html=1;dashPattern=1 3;strokeWidth=2;rounded=0;" edge="1" parent="1">
          <mxGeometry width="50" height="50" relative="1" as="geometry">
            <mxPoint x="600" y="440" as="sourcePoint" />
            <mxPoint x="600" y="350" as="targetPoint" />
          </mxGeometry>
        </mxCell>
        <mxCell id="ioFfpy6WPlezLUlDHou8-17" value="&lt;h4&gt;&lt;span style=&quot;font-weight: normal;&quot;&gt;&lt;font style=&quot;font-size: 21px;&quot;&gt;f&lt;/font&gt;&lt;/span&gt;&lt;/h4&gt;" style="text;html=1;strokeColor=none;fillColor=none;align=center;verticalAlign=middle;whiteSpace=wrap;rounded=0;" vertex="1" parent="1">
          <mxGeometry x="150" y="170" width="60" height="30" as="geometry" />
        </mxCell>
        <mxCell id="ioFfpy6WPlezLUlDHou8-18" value="&lt;h4&gt;&lt;span style=&quot;font-weight: normal;&quot;&gt;&lt;font style=&quot;font-size: 21px;&quot;&gt;t&lt;/font&gt;&lt;/span&gt;&lt;/h4&gt;" style="text;html=1;strokeColor=none;fillColor=none;align=center;verticalAlign=middle;whiteSpace=wrap;rounded=0;" vertex="1" parent="1">
          <mxGeometry x="680" y="450" width="60" height="30" as="geometry" />
        </mxCell>
        <mxCell id="ioFfpy6WPlezLUlDHou8-19" value="" style="endArrow=none;dashed=1;html=1;dashPattern=1 3;strokeWidth=2;rounded=0;" edge="1" parent="1">
          <mxGeometry width="50" height="50" relative="1" as="geometry">
            <mxPoint x="280" y="440" as="sourcePoint" />
            <mxPoint x="280" y="300" as="targetPoint" />
          </mxGeometry>
        </mxCell>
        <mxCell id="ioFfpy6WPlezLUlDHou8-20" value="" style="endArrow=none;dashed=1;html=1;dashPattern=1 3;strokeWidth=2;rounded=0;" edge="1" parent="1">
          <mxGeometry width="50" height="50" relative="1" as="geometry">
            <mxPoint x="400" y="440" as="sourcePoint" />
            <mxPoint x="400" y="250" as="targetPoint" />
          </mxGeometry>
        </mxCell>
        <mxCell id="ioFfpy6WPlezLUlDHou8-21" value="" style="curved=1;endArrow=none;html=1;rounded=0;edgeStyle=orthogonalEdgeStyle;endFill=0;strokeWidth=2;strokeColor=#BABABA;" edge="1" parent="1" source="ioFfpy6WPlezLUlDHou8-25">
          <mxGeometry width="50" height="50" relative="1" as="geometry">
            <mxPoint x="220" y="340" as="sourcePoint" />
            <mxPoint x="646" y="270" as="targetPoint" />
            <Array as="points">
              <mxPoint x="271" y="300" />
              <mxPoint x="300" y="300" />
              <mxPoint x="300" y="350" />
              <mxPoint x="330" y="350" />
              <mxPoint x="330" y="270" />
              <mxPoint x="350" y="270" />
              <mxPoint x="350" y="340" />
              <mxPoint x="380" y="340" />
              <mxPoint x="380" y="250" />
              <mxPoint x="410" y="250" />
              <mxPoint x="410" y="300" />
              <mxPoint x="440" y="300" />
              <mxPoint x="440" y="260" />
              <mxPoint x="460" y="260" />
              <mxPoint x="460" y="390" />
              <mxPoint x="510" y="390" />
              <mxPoint x="510" y="300" />
              <mxPoint x="540" y="300" />
              <mxPoint x="540" y="260" />
              <mxPoint x="576" y="260" />
              <mxPoint x="576" y="350" />
              <mxPoint x="626" y="350" />
              <mxPoint x="626" y="270" />
            </Array>
          </mxGeometry>
        </mxCell>
        <mxCell id="ioFfpy6WPlezLUlDHou8-22" value="" style="endArrow=none;dashed=1;html=1;dashPattern=1 3;strokeWidth=2;rounded=0;" edge="1" parent="1" target="ioFfpy6WPlezLUlDHou8-23">
          <mxGeometry width="50" height="50" relative="1" as="geometry">
            <mxPoint x="240" y="440" as="sourcePoint" />
            <mxPoint x="240" y="340" as="targetPoint" />
          </mxGeometry>
        </mxCell>
        <mxCell id="ioFfpy6WPlezLUlDHou8-24" value="" style="curved=1;endArrow=none;html=1;rounded=0;edgeStyle=orthogonalEdgeStyle;endFill=0;strokeWidth=2;strokeColor=#BABABA;" edge="1" parent="1" target="ioFfpy6WPlezLUlDHou8-25">
          <mxGeometry width="50" height="50" relative="1" as="geometry">
            <mxPoint x="220" y="340" as="sourcePoint" />
            <mxPoint x="646" y="270" as="targetPoint" />
            <Array as="points">
              <mxPoint x="220" y="341" />
              <mxPoint x="271" y="341" />
            </Array>
          </mxGeometry>
        </mxCell>
        <mxCell id="ioFfpy6WPlezLUlDHou8-27" value="" style="endArrow=none;dashed=1;html=1;dashPattern=1 3;strokeWidth=2;rounded=0;" edge="1" parent="1" source="ioFfpy6WPlezLUlDHou8-26">
          <mxGeometry width="50" height="50" relative="1" as="geometry">
            <mxPoint x="300" y="630" as="sourcePoint" />
            <mxPoint x="200" y="350" as="targetPoint" />
          </mxGeometry>
        </mxCell>
        <mxCell id="ioFfpy6WPlezLUlDHou8-30" value="" style="endArrow=none;dashed=1;html=1;dashPattern=1 3;strokeWidth=2;rounded=0;" edge="1" parent="1" target="ioFfpy6WPlezLUlDHou8-31">
          <mxGeometry width="50" height="50" relative="1" as="geometry">
            <mxPoint x="440" y="290" as="sourcePoint" />
            <mxPoint x="200" y="290" as="targetPoint" />
          </mxGeometry>
        </mxCell>
        <mxCell id="ioFfpy6WPlezLUlDHou8-61" value="" style="endArrow=none;html=1;rounded=0;strokeColor=#FF2424;strokeWidth=2;entryX=0.75;entryY=0.9;entryDx=0;entryDy=0;entryPerimeter=0;" edge="1" parent="1" target="ioFfpy6WPlezLUlDHou8-25">
          <mxGeometry width="50" height="50" relative="1" as="geometry">
            <mxPoint x="240" y="340" as="sourcePoint" />
            <mxPoint x="260" y="337" as="targetPoint" />
          </mxGeometry>
        </mxCell>
        <mxCell id="ioFfpy6WPlezLUlDHou8-63" value="" style="endArrow=none;html=1;rounded=0;strokeColor=#FF2424;strokeWidth=2;exitX=0.5;exitY=1;exitDx=0;exitDy=0;exitPerimeter=0;entryX=0.4;entryY=0.25;entryDx=0;entryDy=0;entryPerimeter=0;" edge="1" parent="1" source="ioFfpy6WPlezLUlDHou8-25" target="ioFfpy6WPlezLUlDHou8-26">
          <mxGeometry width="50" height="50" relative="1" as="geometry">
            <mxPoint x="370" y="550" as="sourcePoint" />
            <mxPoint x="300" y="333" as="targetPoint" />
          </mxGeometry>
        </mxCell>
        <mxCell id="ioFfpy6WPlezLUlDHou8-65" value="" style="endArrow=none;html=1;rounded=0;strokeColor=#FF2424;strokeWidth=2;exitX=0.7;exitY=0.75;exitDx=0;exitDy=0;exitPerimeter=0;entryX=0.25;entryY=0.35;entryDx=0;entryDy=0;entryPerimeter=0;" edge="1" parent="1" source="ioFfpy6WPlezLUlDHou8-26" target="ioFfpy6WPlezLUlDHou8-28">
          <mxGeometry width="50" height="50" relative="1" as="geometry">
            <mxPoint x="320" y="660" as="sourcePoint" />
            <mxPoint x="340" y="657" as="targetPoint" />
          </mxGeometry>
        </mxCell>
        <mxCell id="ioFfpy6WPlezLUlDHou8-67" value="" style="endArrow=none;html=1;rounded=0;strokeColor=#FF2424;strokeWidth=2;exitX=0.7;exitY=0.35;exitDx=0;exitDy=0;exitPerimeter=0;entryX=0.45;entryY=0.9;entryDx=0;entryDy=0;entryPerimeter=0;" edge="1" parent="1" source="ioFfpy6WPlezLUlDHou8-28" target="ioFfpy6WPlezLUlDHou8-29">
          <mxGeometry width="50" height="50" relative="1" as="geometry">
            <mxPoint x="280" y="570" as="sourcePoint" />
            <mxPoint x="379" y="307" as="targetPoint" />
          </mxGeometry>
        </mxCell>
        <mxCell id="ioFfpy6WPlezLUlDHou8-69" value="" style="endArrow=none;html=1;rounded=0;strokeColor=#FF2424;strokeWidth=2;exitX=0.85;exitY=0.25;exitDx=0;exitDy=0;exitPerimeter=0;entryX=0.6;entryY=0.1;entryDx=0;entryDy=0;entryPerimeter=0;" edge="1" parent="1" source="ioFfpy6WPlezLUlDHou8-29" target="ioFfpy6WPlezLUlDHou8-31">
          <mxGeometry width="50" height="50" relative="1" as="geometry">
            <mxPoint x="310" y="670" as="sourcePoint" />
            <mxPoint x="420" y="298" as="targetPoint" />
          </mxGeometry>
        </mxCell>
        <mxCell id="ioFfpy6WPlezLUlDHou8-73" value="" style="endArrow=none;html=1;rounded=0;strokeColor=#FF2424;strokeWidth=2;exitX=0.5;exitY=0.9;exitDx=0;exitDy=0;exitPerimeter=0;entryX=0.65;entryY=0.2;entryDx=0;entryDy=0;entryPerimeter=0;" edge="1" parent="1" source="ioFfpy6WPlezLUlDHou8-32" target="ioFfpy6WPlezLUlDHou8-33">
          <mxGeometry width="50" height="50" relative="1" as="geometry">
            <mxPoint x="410" y="620" as="sourcePoint" />
            <mxPoint x="499" y="383" as="targetPoint" />
          </mxGeometry>
        </mxCell>
        <mxCell id="ioFfpy6WPlezLUlDHou8-75" value="" style="endArrow=none;html=1;rounded=0;strokeColor=#FF2424;strokeWidth=2;exitX=0.7;exitY=0.7;exitDx=0;exitDy=0;exitPerimeter=0;entryX=0.45;entryY=0.9;entryDx=0;entryDy=0;entryPerimeter=0;" edge="1" parent="1" source="ioFfpy6WPlezLUlDHou8-33" target="ioFfpy6WPlezLUlDHou8-34">
          <mxGeometry width="50" height="50" relative="1" as="geometry">
            <mxPoint x="520" y="580" as="sourcePoint" />
            <mxPoint x="539" y="288" as="targetPoint" />
          </mxGeometry>
        </mxCell>
        <mxCell id="ioFfpy6WPlezLUlDHou8-77" value="" style="endArrow=none;html=1;rounded=0;strokeColor=#FF2424;strokeWidth=2;exitX=0.6;exitY=0.8;exitDx=0;exitDy=0;exitPerimeter=0;entryX=0.25;entryY=0.35;entryDx=0;entryDy=0;entryPerimeter=0;" edge="1" parent="1" source="ioFfpy6WPlezLUlDHou8-34" target="ioFfpy6WPlezLUlDHou8-35">
          <mxGeometry width="50" height="50" relative="1" as="geometry">
            <mxPoint x="530" y="590" as="sourcePoint" />
            <mxPoint x="579" y="333" as="targetPoint" />
          </mxGeometry>
        </mxCell>
        <mxCell id="ioFfpy6WPlezLUlDHou8-71" value="" style="endArrow=none;html=1;rounded=0;strokeColor=#FF2424;strokeWidth=2;exitX=0.65;exitY=0.95;exitDx=0;exitDy=0;exitPerimeter=0;" edge="1" parent="1" source="ioFfpy6WPlezLUlDHou8-31" target="ioFfpy6WPlezLUlDHou8-32">
          <mxGeometry width="50" height="50" relative="1" as="geometry">
            <mxPoint x="340" y="630" as="sourcePoint" />
            <mxPoint x="360" y="627" as="targetPoint" />
          </mxGeometry>
        </mxCell>
        <mxCell id="ioFfpy6WPlezLUlDHou8-23" value="" style="shape=waypoint;sketch=0;fillStyle=solid;size=6;pointerEvents=1;points=[];fillColor=none;resizable=0;rotatable=0;perimeter=centerPerimeter;snapToPoint=1;" vertex="1" parent="1">
          <mxGeometry x="230" y="330" width="20" height="20" as="geometry" />
        </mxCell>
        <mxCell id="ioFfpy6WPlezLUlDHou8-25" value="" style="shape=waypoint;sketch=0;fillStyle=solid;size=6;pointerEvents=1;points=[];fillColor=none;resizable=0;rotatable=0;perimeter=centerPerimeter;snapToPoint=1;" vertex="1" parent="1">
          <mxGeometry x="270" y="290" width="20" height="20" as="geometry" />
        </mxCell>
        <mxCell id="ioFfpy6WPlezLUlDHou8-26" value="" style="shape=waypoint;sketch=0;fillStyle=solid;size=6;pointerEvents=1;points=[];fillColor=none;resizable=0;rotatable=0;perimeter=centerPerimeter;snapToPoint=1;" vertex="1" parent="1">
          <mxGeometry x="310" y="338" width="20" height="20" as="geometry" />
        </mxCell>
        <mxCell id="ioFfpy6WPlezLUlDHou8-28" value="" style="shape=waypoint;sketch=0;fillStyle=solid;size=6;pointerEvents=1;points=[];fillColor=none;resizable=0;rotatable=0;perimeter=centerPerimeter;snapToPoint=1;" vertex="1" parent="1">
          <mxGeometry x="351" y="330" width="20" height="20" as="geometry" />
        </mxCell>
        <mxCell id="ioFfpy6WPlezLUlDHou8-29" value="" style="shape=waypoint;sketch=0;fillStyle=solid;size=6;pointerEvents=1;points=[];fillColor=none;resizable=0;rotatable=0;perimeter=centerPerimeter;snapToPoint=1;" vertex="1" parent="1">
          <mxGeometry x="390" y="240" width="20" height="20" as="geometry" />
        </mxCell>
        <mxCell id="ioFfpy6WPlezLUlDHou8-31" value="" style="shape=waypoint;sketch=0;fillStyle=solid;size=6;pointerEvents=1;points=[];fillColor=none;resizable=0;rotatable=0;perimeter=centerPerimeter;snapToPoint=1;" vertex="1" parent="1">
          <mxGeometry x="428" y="280" width="20" height="20" as="geometry" />
        </mxCell>
        <mxCell id="ioFfpy6WPlezLUlDHou8-32" value="" style="shape=waypoint;sketch=0;fillStyle=solid;size=6;pointerEvents=1;points=[];fillColor=none;resizable=0;rotatable=0;perimeter=centerPerimeter;snapToPoint=1;" vertex="1" parent="1">
          <mxGeometry x="470" y="378" width="20" height="20" as="geometry" />
        </mxCell>
        <mxCell id="ioFfpy6WPlezLUlDHou8-33" value="" style="shape=waypoint;sketch=0;fillStyle=solid;size=6;pointerEvents=1;points=[];fillColor=none;resizable=0;rotatable=0;perimeter=centerPerimeter;snapToPoint=1;" vertex="1" parent="1">
          <mxGeometry x="510" y="290" width="20" height="20" as="geometry" />
        </mxCell>
        <mxCell id="ioFfpy6WPlezLUlDHou8-34" value="" style="shape=waypoint;sketch=0;fillStyle=solid;size=6;pointerEvents=1;points=[];fillColor=none;resizable=0;rotatable=0;perimeter=centerPerimeter;snapToPoint=1;" vertex="1" parent="1">
          <mxGeometry x="550" y="248" width="20" height="20" as="geometry" />
        </mxCell>
        <mxCell id="ioFfpy6WPlezLUlDHou8-35" value="" style="shape=waypoint;sketch=0;fillStyle=solid;size=6;pointerEvents=1;points=[];fillColor=none;resizable=0;rotatable=0;perimeter=centerPerimeter;snapToPoint=1;" vertex="1" parent="1">
          <mxGeometry x="590" y="338" width="20" height="20" as="geometry" />
        </mxCell>
      </root>
    </mxGraphModel>
  </diagram>
</mxfile>
